<svg width="11" height="9" viewBox="0 0 11 9" fill="none" xmlns="http://www.w3.org/2000/svg">
<path d="M0.50718 1.64026L2.0777 0.119054C2.20039 0.000269331 2.39939 0.000307366 2.52199 0.119054L4.09246 1.64026C4.29019 1.83174 4.14938 2.15963 3.8703 2.15963H2.92819V8.24431C2.92819 8.41234 2.78754 8.54855 2.61403 8.54855H1.98569C1.81217 8.54855 1.67152 8.41234 1.67152 8.24431V2.15963H0.729336C0.449707 2.15963 0.309864 1.83136 0.50718 1.64026ZM5.12737 1.24693H10.154C10.3276 1.24693 10.4682 1.11072 10.4682 0.942692V0.334223C10.4682 0.166191 10.3276 0.0299892 10.154 0.0299892H5.12737C4.95385 0.0299892 4.8132 0.166191 4.8132 0.334223V0.942692C4.8132 1.11072 4.95385 1.24693 5.12737 1.24693ZM4.8132 3.37657V2.7681C4.8132 2.60006 4.95385 2.46386 5.12737 2.46386H8.89737C9.07089 2.46386 9.21154 2.60006 9.21154 2.7681V3.37657C9.21154 3.5446 9.07089 3.6808 8.89737 3.6808H5.12737C4.95385 3.6808 4.8132 3.5446 4.8132 3.37657ZM4.8132 8.24431V7.63584C4.8132 7.46781 4.95385 7.33161 5.12737 7.33161H6.38403C6.55755 7.33161 6.6982 7.46781 6.6982 7.63584V8.24431C6.6982 8.41234 6.55755 8.54855 6.38403 8.54855H5.12737C4.95385 8.54855 4.8132 8.41234 4.8132 8.24431ZM4.8132 5.81044V5.20197C4.8132 5.03394 4.95385 4.89774 5.12737 4.89774H7.6407C7.81422 4.89774 7.95487 5.03394 7.95487 5.20197V5.81044C7.95487 5.97847 7.81422 6.11467 7.6407 6.11467H5.12737C4.95385 6.11467 4.8132 5.97847 4.8132 5.81044Z" fill="#C5C7CD"/>
</svg>
